<?xml version="1.0" encoding="UTF-8" standalone="no"?>
<!-- Created with Inkscape (http://www.inkscape.org/) -->
<svg
   xmlns:dc="http://purl.org/dc/elements/1.1/"
   xmlns:cc="http://web.resource.org/cc/"
   xmlns:rdf="http://www.w3.org/1999/02/22-rdf-syntax-ns#"
   xmlns:svg="http://www.w3.org/2000/svg"
   xmlns="http://www.w3.org/2000/svg"
   xmlns:xlink="http://www.w3.org/1999/xlink"
   xmlns:sodipodi="http://sodipodi.sourceforge.net/DTD/sodipodi-0.dtd"
   xmlns:inkscape="http://www.inkscape.org/namespaces/inkscape"
   width="259.08264"
   height="182.78113"
   id="svg2"
   sodipodi:version="0.32"
   inkscape:version="0.44.1"
   sodipodi:docbase="C:\Dokumente und Einstellungen\LarsF\Desktop"
   sodipodi:docname="svg.svg"
   version="1.0">
  <defs
     id="defs4">
    <linearGradient
       id="linearGradient11052">
      <stop
         style="stop-color:#6b4d05;stop-opacity:1;"
         offset="0"
         id="stop11054" />
      <stop
         style="stop-color:black;stop-opacity:1;"
         offset="1"
         id="stop11056" />
    </linearGradient>
    <linearGradient
       id="linearGradient5455">
      <stop
         style="stop-color:white;stop-opacity:0;"
         offset="0"
         id="stop5457" />
      <stop
         style="stop-color:#f4bd32;stop-opacity:0.64313728"
         offset="1"
         id="stop5459" />
    </linearGradient>
    <linearGradient
       id="linearGradient2760">
      <stop
         style="stop-color:white;stop-opacity:1;"
         offset="0"
         id="stop2762" />
      <stop
         style="stop-color:#f4bd32;stop-opacity:1;"
         offset="1"
         id="stop2764" />
    </linearGradient>
    <linearGradient
       inkscape:collect="always"
       xlink:href="#linearGradient2760"
       id="linearGradient5449"
       x1="212.91449"
       y1="313.45645"
       x2="382.18341"
       y2="436.69507"
       gradientUnits="userSpaceOnUse"
       gradientTransform="matrix(0.926343,0,0,0.888883,-110.1174,-232.3663)" />
    <radialGradient
       inkscape:collect="always"
       xlink:href="#linearGradient5455"
       id="radialGradient7247"
       cx="227.63554"
       cy="342.17578"
       fx="227.63554"
       fy="342.17578"
       r="139.64285"
       gradientTransform="matrix(1.010357,0.483929,-0.354879,0.683253,-1.518421,-266.4895)"
       gradientUnits="userSpaceOnUse" />
    <linearGradient
       inkscape:collect="always"
       xlink:href="#linearGradient11052"
       id="linearGradient11060"
       x1="71.479057"
       y1="363.43814"
       x2="330.56171"
       y2="363.43814"
       gradientUnits="userSpaceOnUse"
       gradientTransform="translate(-71.47906,-272.4721)" />
  </defs>
  <sodipodi:namedview
     id="base"
     pagecolor="#ffffff"
     bordercolor="#666666"
     borderopacity="1.0"
     inkscape:pageopacity="0.0"
     inkscape:pageshadow="2"
     inkscape:zoom="0.98994949"
     inkscape:cx="330.1847"
     inkscape:cy="153.0293"
     inkscape:document-units="px"
     inkscape:current-layer="layer1"
     inkscape:window-width="915"
     inkscape:window-height="573"
     inkscape:window-x="110"
     inkscape:window-y="110" />
  <metadata
     id="metadata7">
    <rdf:RDF>
      <cc:Work
         rdf:about="">
        <dc:format>image/svg+xml</dc:format>
        <dc:type
           rdf:resource="http://purl.org/dc/dcmitype/StillImage" />
      </cc:Work>
    </rdf:RDF>
  </metadata>
  <g
     inkscape:label="Ebene 1"
     inkscape:groupmode="layer"
     id="layer1"
     transform="translate(0,0.426788)">
    <rect
       style="opacity:1;fill:url(#linearGradient5449);fill-opacity:1;fill-rule:evenodd;stroke:black;stroke-width:0;stroke-linecap:butt;stroke-linejoin:round;stroke-miterlimit:4;stroke-dasharray:none;stroke-opacity:1"
       id="rect1872"
       width="254.08266"
       height="177.77664"
       x="1.0437951"
       y="-0.42678833"
       ry="30.475996" />
    <rect
       style="opacity:1;fill:url(#radialGradient7247);fill-opacity:1;fill-rule:evenodd;stroke:url(#linearGradient11060);stroke-width:4.54692554;stroke-linecap:butt;stroke-linejoin:round;stroke-miterlimit:4;stroke-dasharray:none;stroke-dashoffset:0;stroke-opacity:1"
       id="rect5451"
       width="254.53572"
       height="178.22972"
       x="2.2734628"
       y="1.8511581"
       ry="32.354057" />
    <g
       id="g9129"
       transform="translate(-113.9055,-277.5228)">
      <path
         d="M 223.80852,317.99274 C 223.88881,317.75227 223.891,317.49479 223.93206,317.24691 C 224.05466,316.52219 224.00613,315.78636 224.04306,315.05811 C 224.05963,313.73583 223.67575,312.46543 223.4657,311.17639 C 223.05927,309.37144 222.16025,307.75581 221.42152,306.08196 C 220.53199,304.20672 219.25649,302.58452 218.0397,300.92351 C 216.85239,299.30834 215.24487,298.12254 213.7674,296.80721 C 212.39224,295.48696 210.59993,295.02996 208.92606,294.30633 C 207.21254,293.73675 205.62898,294.3262 203.95832,294.5774 C 202.27705,295.01325 200.93949,296.08489 199.49404,296.96284 C 208.31001,289.46391 203.10166,294.83757 201.27963,297.05279 C 200.03113,298.9645 199.3696,301.14094 198.59675,303.26303 C 197.77737,305.80474 197.3181,308.43688 196.7906,311.0481 C 196.25577,313.95604 195.9142,316.89264 195.56866,319.82729 C 195.17626,323.08284 194.96416,326.35298 194.77342,329.62494 C 194.5938,333.12987 194.52667,336.6392 194.44918,340.14747 C 194.37697,343.73447 194.36451,347.32228 194.34106,350.90983 C 194.32458,354.43973 194.32242,357.96959 194.32775,361.49951 C 194.33235,364.95644 194.32682,368.41332 194.31627,371.87024 C 194.30991,375.22554 194.34222,378.58071 194.37249,381.93583 C 194.40318,385.11406 194.39871,388.29233 194.39041,391.47064 C 194.36204,394.64651 194.38256,397.82188 194.43676,400.99719 C 194.52504,403.94755 194.60938,406.898 194.68863,409.84851 C 194.80303,412.52041 194.55164,415.17836 194.35223,417.83722 C 194.21622,420.13593 193.54017,422.31484 192.92942,424.51092 C 192.30282,426.6382 190.98294,428.37212 189.76997,430.17633 C 188.42736,431.94823 186.74446,433.39607 185.12372,434.89696 C 181.88222,437.64692 178.23159,439.85604 174.73131,442.24368 C 173.05496,443.43566 171.07199,443.87219 169.18504,444.54389 C 167.33243,445.05459 165.45203,444.76205 163.57943,444.711 C 161.75638,444.58419 160.15633,443.74275 158.48808,443.11415 C 156.76775,442.32546 155.24062,441.20615 153.65503,440.19271 C 151.99929,439.14394 150.72617,437.66291 149.33638,436.31712 C 148.43847,435.42926 147.84027,434.30682 147.0952,433.30569 L 152.61847,429.48686 C 153.32261,430.45514 153.87158,431.54837 154.73678,432.39983 C 156.07299,433.70321 157.28941,435.14498 158.90102,436.14056 C 160.49124,437.08825 162.01216,438.16703 163.74759,438.85669 C 165.35348,439.40687 166.89736,440.16633 168.6359,440.24487 C 170.41816,440.24613 172.2097,440.49712 173.95413,439.9195 C 175.74575,439.20917 177.62754,438.69247 179.22629,437.54728 C 178.37086,438.18252 177.5326,438.84156 176.66,439.453 C 175.78018,440.0695 180.17009,436.98491 179.23718,437.51767 C 180.88077,436.06741 182.58108,434.66881 183.96431,432.95104 C 185.19712,431.23264 186.52188,429.58317 187.20691,427.53988 C 187.94187,425.35821 188.73775,423.20026 188.97823,420.88609 C 189.27975,418.21865 189.63428,415.55429 189.57338,412.86002 C 189.55616,409.87729 189.54435,406.89445 189.49792,403.91162 C 189.48927,400.72522 189.49516,397.53885 189.48758,394.35244 C 189.48255,391.16467 189.48163,387.97694 189.5174,384.78929 C 189.55333,381.40792 189.59138,378.02649 189.59446,374.64488 C 189.59426,371.18424 189.59906,367.72366 189.62278,364.26309 C 189.64943,360.7209 189.66806,357.17868 189.69424,353.63649 C 189.71907,350.04929 189.753,346.4622 189.78765,342.87508 C 189.82991,339.38331 189.87481,335.89153 189.98786,332.40113 C 190.11669,329.16125 190.24451,325.92016 190.54732,322.69047 C 190.83952,319.77941 191.0916,316.86211 191.55644,313.97145 C 192.01017,311.37612 192.41194,308.76921 193.10125,306.22095 C 193.74202,304.1037 194.27814,301.94164 195.36271,299.98974 C 197.92315,296.28008 199.24226,294.45723 204.17259,292.01079 C 205.68898,291.20634 207.10885,290.19299 208.84306,289.86803 C 210.62469,289.73866 212.34569,289.24347 214.10483,289.98762 C 215.80382,290.83786 217.63011,291.45369 219.03662,292.82456 C 220.52933,294.21053 222.15444,295.46914 223.35239,297.14847 C 224.58905,298.85458 225.87527,300.52965 226.85952,302.40412 C 227.70803,304.06925 228.68662,305.67629 229.26848,307.46687 C 229.63936,308.7205 230.16309,309.93589 230.34378,311.24327 C 230.44131,311.93016 230.60441,312.60917 230.63658,313.30553 C 230.67742,313.50404 230.67073,313.7199 230.76012,313.9061 L 223.80852,317.99274 z "
         id="path9101"
         style="opacity:1;fill:black;fill-opacity:1;fill-rule:evenodd;stroke:black;stroke-width:0;stroke-linecap:butt;stroke-linejoin:round;stroke-miterlimit:4;stroke-dasharray:none;stroke-opacity:1" />
      <path
         d="M 231.77027,347.26425 C 231.66025,347.57064 231.66083,347.90171 231.6064,348.21873 C 231.46952,349.22334 231.44742,350.23809 231.36796,351.24731 C 231.27198,352.87526 231.24637,354.50611 231.19846,356.13582 C 231.15407,358.13597 231.12697,360.13638 231.09563,362.13674 C 231.07583,364.39145 231.04553,366.64606 231.01572,368.90066 C 230.9963,371.30681 230.99654,373.71308 230.99287,376.11928 C 230.97707,378.58444 230.97736,381.0496 230.97737,383.5148 C 230.98201,385.93246 230.99448,388.35009 231.00546,390.76773 C 231.01704,393.08294 231.02781,395.39815 231.03866,397.71337 C 231.04914,399.93824 231.05702,402.16313 231.06531,404.38801 C 231.07316,406.54603 231.07857,408.70405 231.08439,410.86207 C 231.08987,412.97377 231.09349,415.08547 231.09742,417.19717 C 231.09866,417.89354 231.09962,418.58991 231.10072,419.28629 L 225.48822,422.58571 C 225.48932,421.88804 225.49028,421.19037 225.49153,420.49271 C 225.49546,418.3759 225.49908,416.2591 225.50455,414.14229 C 225.51037,411.97679 225.51579,409.81129 225.52363,407.6458 C 225.53193,405.41047 225.53981,403.17514 225.55028,400.93982 C 225.56113,398.6116 225.57191,396.28337 225.58348,393.95515 C 225.59446,391.5265 225.60692,389.09786 225.61157,386.66919 C 225.61159,384.21007 225.61192,381.75099 225.59607,379.2919 C 225.59241,376.89465 225.5927,374.49733 225.57323,372.10013 C 225.54337,369.87686 225.51303,367.65358 225.49331,365.43018 C 225.46203,363.47012 225.4351,361.51 225.39048,359.55016 C 225.34288,357.98687 225.31876,356.4223 225.22098,354.86094 C 225.14154,353.94525 225.1254,353.02272 224.98255,352.1127 C 224.92848,351.86134 224.94229,351.58427 224.81867,351.35089 L 231.77027,347.26425 z "
         id="path9103"
         style="opacity:1;fill:black;fill-opacity:1;fill-rule:evenodd;stroke:black;stroke-width:0;stroke-linecap:butt;stroke-linejoin:round;stroke-miterlimit:4;stroke-dasharray:none;stroke-opacity:1" />
      <path
         d="M 313.59263,351.30486 C 313.51245,351.55916 313.50133,351.82929 313.45587,352.0904 C 313.36468,352.86848 313.34421,353.65223 313.28838,354.43305 C 313.20754,355.75378 313.16636,357.07637 313.10723,358.39812 C 313.04307,360.19447 313.01529,361.99175 312.97433,363.78869 C 312.92863,365.92701 312.90484,368.06563 312.87588,370.20419 C 312.86271,372.49809 312.85592,374.792 312.84697,377.08591 C 312.83285,379.52333 312.80741,381.96064 312.78532,384.39798 C 312.75863,386.95814 312.7698,389.51843 312.77391,392.07865 C 312.78225,394.55716 312.79724,397.03563 312.81095,399.51411 C 312.82493,401.86909 312.83736,404.22408 312.84999,406.57906 C 312.86205,408.82995 312.871,411.08084 312.88046,413.33174 C 312.88644,414.78859 312.89077,416.24545 312.89572,417.70231 L 307.33795,420.96955 C 307.34289,419.50672 307.34723,418.04388 307.35321,416.58104 C 307.36266,414.31821 307.37163,412.05537 307.38367,409.79255 C 307.3963,407.42226 307.40874,405.05197 307.42271,402.68169 C 307.43641,400.1887 307.45139,397.6957 307.45976,395.20268 C 307.46385,392.64694 307.47511,390.09112 307.44834,387.53544 C 307.42624,385.12225 307.40075,382.7091 307.3867,380.29584 C 307.37774,378.01326 307.37097,375.73068 307.35778,373.44812 C 307.32888,371.34814 307.30529,369.24809 307.25933,367.14837 C 307.21846,365.40351 307.1912,363.65829 307.12643,361.91405 C 307.06738,360.6633 307.0273,359.4116 306.94528,358.16197 C 306.88946,357.44682 306.87225,356.72808 306.77779,356.01625 C 306.73258,355.80971 306.72959,355.58656 306.64103,355.3915 L 313.59263,351.30486 z "
         id="path9109"
         style="opacity:1;fill:black;fill-opacity:1;fill-rule:evenodd;stroke:black;stroke-width:0;stroke-linecap:butt;stroke-linejoin:round;stroke-miterlimit:4;stroke-dasharray:none;stroke-opacity:1" />
      <path
         d="M 248.94287,358.37593 C 248.40771,357.76886 249.32098,359.34985 249.36196,359.4554 C 250.76947,362.04815 252.52453,364.42575 254.22408,366.82895 C 257.66833,371.419 261.42869,375.75598 265.20847,380.06928 C 269.64415,385.07079 274.25131,389.91521 278.87428,394.74271 C 282.85229,398.84073 286.67261,403.0825 290.44058,407.37223 C 291.50399,408.57628 292.49098,409.8437 293.51618,411.07944 L 289.80564,413.70786 C 288.86796,412.41663 287.96884,411.09742 286.9926,409.83418 C 283.53455,405.34043 280.04452,400.86939 276.2653,396.63692 C 271.8523,391.61801 267.30188,386.72325 262.63571,381.93843 C 258.59618,377.77481 254.51691,373.64864 250.30245,369.66101 C 248.09585,367.61063 245.93326,365.49747 243.54499,363.65567 C 243.02821,363.25883 242.36553,363.00002 241.99127,362.46257 L 248.94287,358.37593 z "
         id="path9117"
         style="opacity:1;fill:black;fill-opacity:1;fill-rule:evenodd;stroke:black;stroke-width:0;stroke-linecap:butt;stroke-linejoin:round;stroke-miterlimit:4;stroke-dasharray:none;stroke-opacity:1" />
      <path
         d="M 290.35913,357.36577 C 290.38729,357.86227 290.01989,358.26977 289.8547,358.70997 C 288.96143,360.42806 287.91722,362.0596 286.91475,363.71411 C 285.24635,366.38099 283.56973,369.04269 281.90025,371.70891 C 279.97722,374.78811 278.01714,377.84338 276.04023,380.88816 C 273.96372,384.09641 271.76181,387.22018 269.56907,390.34925 C 267.54204,393.17456 265.56588,396.03467 263.61377,398.91196 C 261.94595,401.40972 260.35255,403.95612 258.745,406.49279 C 257.38206,408.67915 255.87057,410.76247 254.37436,412.85689 C 253.30836,414.39376 252.0201,415.74583 250.78797,417.14345 L 244.92242,419.84283 C 246.23673,418.4498 247.61114,417.10861 248.74668,415.55595 C 250.34816,413.43933 251.96518,411.33534 253.41238,409.10682 C 255.13525,406.51813 256.85166,403.92468 258.60132,401.35396 C 260.6524,398.42385 262.72963,395.51304 264.85391,392.63528 C 267.06189,389.52958 269.28177,386.42999 271.32178,383.20964 C 273.21247,380.22033 275.0807,377.21718 276.90255,374.1852 C 278.41842,371.64661 279.95309,369.11713 281.3439,366.5068 C 282.00046,365.08189 282.81922,363.71455 283.20959,362.18009 C 283.2609,361.99146 283.35744,361.56139 283.40752,361.45242 L 290.35913,357.36577 z "
         id="path9119"
         style="opacity:1;fill:black;fill-opacity:1;fill-rule:evenodd;stroke:black;stroke-width:0;stroke-linecap:butt;stroke-linejoin:round;stroke-miterlimit:4;stroke-dasharray:none;stroke-opacity:1" />
    </g>
    <g
       id="g9270"
       transform="translate(-110.9041,-276.2476)"
       style="fill:black;fill-opacity:0.48584906">
      <path
         d="M 223.80852,317.99274 C 223.88881,317.75227 223.891,317.49479 223.93206,317.24691 C 224.05466,316.52219 224.00613,315.78636 224.04306,315.05811 C 224.05963,313.73583 223.67575,312.46543 223.4657,311.17639 C 223.05927,309.37144 222.16025,307.75581 221.42152,306.08196 C 220.53199,304.20672 219.25649,302.58452 218.0397,300.92351 C 216.85239,299.30834 215.24487,298.12254 213.7674,296.80721 C 212.39224,295.48696 210.59993,295.02996 208.92606,294.30633 C 207.21254,293.73675 205.62898,294.3262 203.95832,294.5774 C 202.27705,295.01325 200.93949,296.08489 199.49404,296.96284 C 208.31001,289.46391 203.10166,294.83757 201.27963,297.05279 C 200.03113,298.9645 199.3696,301.14094 198.59675,303.26303 C 197.77737,305.80474 197.3181,308.43688 196.7906,311.0481 C 196.25577,313.95604 195.9142,316.89264 195.56866,319.82729 C 195.17626,323.08284 194.96416,326.35298 194.77342,329.62494 C 194.5938,333.12987 194.52667,336.6392 194.44918,340.14747 C 194.37697,343.73447 194.36451,347.32228 194.34106,350.90983 C 194.32458,354.43973 194.32242,357.96959 194.32775,361.49951 C 194.33235,364.95644 194.32682,368.41332 194.31627,371.87024 C 194.30991,375.22554 194.34222,378.58071 194.37249,381.93583 C 194.40318,385.11406 194.39871,388.29233 194.39041,391.47064 C 194.36204,394.64651 194.38256,397.82188 194.43676,400.99719 C 194.52504,403.94755 194.60938,406.898 194.68863,409.84851 C 194.80303,412.52041 194.55164,415.17836 194.35223,417.83722 C 194.21622,420.13593 193.54017,422.31484 192.92942,424.51092 C 192.30282,426.6382 190.98294,428.37212 189.76997,430.17633 C 188.42736,431.94823 186.74446,433.39607 185.12372,434.89696 C 181.88222,437.64692 178.23159,439.85604 174.73131,442.24368 C 173.05496,443.43566 171.07199,443.87219 169.18504,444.54389 C 167.33243,445.05459 165.45203,444.76205 163.57943,444.711 C 161.75638,444.58419 160.15633,443.74275 158.48808,443.11415 C 156.76775,442.32546 155.24062,441.20615 153.65503,440.19271 C 151.99929,439.14394 150.72617,437.66291 149.33638,436.31712 C 148.43847,435.42926 147.84027,434.30682 147.0952,433.30569 L 152.61847,429.48686 C 153.32261,430.45514 153.87158,431.54837 154.73678,432.39983 C 156.07299,433.70321 157.28941,435.14498 158.90102,436.14056 C 160.49124,437.08825 162.01216,438.16703 163.74759,438.85669 C 165.35348,439.40687 166.89736,440.16633 168.6359,440.24487 C 170.41816,440.24613 172.2097,440.49712 173.95413,439.9195 C 175.74575,439.20917 177.62754,438.69247 179.22629,437.54728 C 178.37086,438.18252 177.5326,438.84156 176.66,439.453 C 175.78018,440.0695 180.17009,436.98491 179.23718,437.51767 C 180.88077,436.06741 182.58108,434.66881 183.96431,432.95104 C 185.19712,431.23264 186.52188,429.58317 187.20691,427.53988 C 187.94187,425.35821 188.73775,423.20026 188.97823,420.88609 C 189.27975,418.21865 189.63428,415.55429 189.57338,412.86002 C 189.55616,409.87729 189.54435,406.89445 189.49792,403.91162 C 189.48927,400.72522 189.49516,397.53885 189.48758,394.35244 C 189.48255,391.16467 189.48163,387.97694 189.5174,384.78929 C 189.55333,381.40792 189.59138,378.02649 189.59446,374.64488 C 189.59426,371.18424 189.59906,367.72366 189.62278,364.26309 C 189.64943,360.7209 189.66806,357.17868 189.69424,353.63649 C 189.71907,350.04929 189.753,346.4622 189.78765,342.87508 C 189.82991,339.38331 189.87481,335.89153 189.98786,332.40113 C 190.11669,329.16125 190.24451,325.92016 190.54732,322.69047 C 190.83952,319.77941 191.0916,316.86211 191.55644,313.97145 C 192.01017,311.37612 192.41194,308.76921 193.10125,306.22095 C 193.74202,304.1037 194.27814,301.94164 195.36271,299.98974 C 197.92315,296.28008 199.24226,294.45723 204.17259,292.01079 C 205.68898,291.20634 207.10885,290.19299 208.84306,289.86803 C 210.62469,289.73866 212.34569,289.24347 214.10483,289.98762 C 215.80382,290.83786 217.63011,291.45369 219.03662,292.82456 C 220.52933,294.21053 222.15444,295.46914 223.35239,297.14847 C 224.58905,298.85458 225.87527,300.52965 226.85952,302.40412 C 227.70803,304.06925 228.68662,305.67629 229.26848,307.46687 C 229.63936,308.7205 230.16309,309.93589 230.34378,311.24327 C 230.44131,311.93016 230.60441,312.60917 230.63658,313.30553 C 230.67742,313.50404 230.67073,313.7199 230.76012,313.9061 L 223.80852,317.99274 z "
         id="path9272"
         style="opacity:1;fill:black;fill-opacity:0.48584906;fill-rule:evenodd;stroke:black;stroke-width:0;stroke-linecap:butt;stroke-linejoin:round;stroke-miterlimit:4;stroke-dasharray:none;stroke-opacity:1" />
      <path
         d="M 231.77027,347.26425 C 231.66025,347.57064 231.66083,347.90171 231.6064,348.21873 C 231.46952,349.22334 231.44742,350.23809 231.36796,351.24731 C 231.27198,352.87526 231.24637,354.50611 231.19846,356.13582 C 231.15407,358.13597 231.12697,360.13638 231.09563,362.13674 C 231.07583,364.39145 231.04553,366.64606 231.01572,368.90066 C 230.9963,371.30681 230.99654,373.71308 230.99287,376.11928 C 230.97707,378.58444 230.97736,381.0496 230.97737,383.5148 C 230.98201,385.93246 230.99448,388.35009 231.00546,390.76773 C 231.01704,393.08294 231.02781,395.39815 231.03866,397.71337 C 231.04914,399.93824 231.05702,402.16313 231.06531,404.38801 C 231.07316,406.54603 231.07857,408.70405 231.08439,410.86207 C 231.08987,412.97377 231.09349,415.08547 231.09742,417.19717 C 231.09866,417.89354 231.09962,418.58991 231.10072,419.28629 L 225.48822,422.58571 C 225.48932,421.88804 225.49028,421.19037 225.49153,420.49271 C 225.49546,418.3759 225.49908,416.2591 225.50455,414.14229 C 225.51037,411.97679 225.51579,409.81129 225.52363,407.6458 C 225.53193,405.41047 225.53981,403.17514 225.55028,400.93982 C 225.56113,398.6116 225.57191,396.28337 225.58348,393.95515 C 225.59446,391.5265 225.60692,389.09786 225.61157,386.66919 C 225.61159,384.21007 225.61192,381.75099 225.59607,379.2919 C 225.59241,376.89465 225.5927,374.49733 225.57323,372.10013 C 225.54337,369.87686 225.51303,367.65358 225.49331,365.43018 C 225.46203,363.47012 225.4351,361.51 225.39048,359.55016 C 225.34288,357.98687 225.31876,356.4223 225.22098,354.86094 C 225.14154,353.94525 225.1254,353.02272 224.98255,352.1127 C 224.92848,351.86134 224.94229,351.58427 224.81867,351.35089 L 231.77027,347.26425 z "
         id="path9274"
         style="opacity:1;fill:black;fill-opacity:0.48584906;fill-rule:evenodd;stroke:black;stroke-width:0;stroke-linecap:butt;stroke-linejoin:round;stroke-miterlimit:4;stroke-dasharray:none;stroke-opacity:1" />
      <path
         d="M 313.59263,351.30486 C 313.51245,351.55916 313.50133,351.82929 313.45587,352.0904 C 313.36468,352.86848 313.34421,353.65223 313.28838,354.43305 C 313.20754,355.75378 313.16636,357.07637 313.10723,358.39812 C 313.04307,360.19447 313.01529,361.99175 312.97433,363.78869 C 312.92863,365.92701 312.90484,368.06563 312.87588,370.20419 C 312.86271,372.49809 312.85592,374.792 312.84697,377.08591 C 312.83285,379.52333 312.80741,381.96064 312.78532,384.39798 C 312.75863,386.95814 312.7698,389.51843 312.77391,392.07865 C 312.78225,394.55716 312.79724,397.03563 312.81095,399.51411 C 312.82493,401.86909 312.83736,404.22408 312.84999,406.57906 C 312.86205,408.82995 312.871,411.08084 312.88046,413.33174 C 312.88644,414.78859 312.89077,416.24545 312.89572,417.70231 L 307.33795,420.96955 C 307.34289,419.50672 307.34723,418.04388 307.35321,416.58104 C 307.36266,414.31821 307.37163,412.05537 307.38367,409.79255 C 307.3963,407.42226 307.40874,405.05197 307.42271,402.68169 C 307.43641,400.1887 307.45139,397.6957 307.45976,395.20268 C 307.46385,392.64694 307.47511,390.09112 307.44834,387.53544 C 307.42624,385.12225 307.40075,382.7091 307.3867,380.29584 C 307.37774,378.01326 307.37097,375.73068 307.35778,373.44812 C 307.32888,371.34814 307.30529,369.24809 307.25933,367.14837 C 307.21846,365.40351 307.1912,363.65829 307.12643,361.91405 C 307.06738,360.6633 307.0273,359.4116 306.94528,358.16197 C 306.88946,357.44682 306.87225,356.72808 306.77779,356.01625 C 306.73258,355.80971 306.72959,355.58656 306.64103,355.3915 L 313.59263,351.30486 z "
         id="path9276"
         style="opacity:1;fill:black;fill-opacity:0.48584906;fill-rule:evenodd;stroke:black;stroke-width:0;stroke-linecap:butt;stroke-linejoin:round;stroke-miterlimit:4;stroke-dasharray:none;stroke-opacity:1" />
      <path
         d="M 248.94287,358.37593 C 248.40771,357.76886 249.32098,359.34985 249.36196,359.4554 C 250.76947,362.04815 252.52453,364.42575 254.22408,366.82895 C 257.66833,371.419 261.42869,375.75598 265.20847,380.06928 C 269.64415,385.07079 274.25131,389.91521 278.87428,394.74271 C 282.85229,398.84073 286.67261,403.0825 290.44058,407.37223 C 291.50399,408.57628 292.49098,409.8437 293.51618,411.07944 L 289.80564,413.70786 C 288.86796,412.41663 287.96884,411.09742 286.9926,409.83418 C 283.53455,405.34043 280.04452,400.86939 276.2653,396.63692 C 271.8523,391.61801 267.30188,386.72325 262.63571,381.93843 C 258.59618,377.77481 254.51691,373.64864 250.30245,369.66101 C 248.09585,367.61063 245.93326,365.49747 243.54499,363.65567 C 243.02821,363.25883 242.36553,363.00002 241.99127,362.46257 L 248.94287,358.37593 z "
         id="path9278"
         style="opacity:1;fill:black;fill-opacity:0.48584906;fill-rule:evenodd;stroke:black;stroke-width:0;stroke-linecap:butt;stroke-linejoin:round;stroke-miterlimit:4;stroke-dasharray:none;stroke-opacity:1" />
      <path
         d="M 290.35913,357.36577 C 290.38729,357.86227 290.01989,358.26977 289.8547,358.70997 C 288.96143,360.42806 287.91722,362.0596 286.91475,363.71411 C 285.24635,366.38099 283.56973,369.04269 281.90025,371.70891 C 279.97722,374.78811 278.01714,377.84338 276.04023,380.88816 C 273.96372,384.09641 271.76181,387.22018 269.56907,390.34925 C 267.54204,393.17456 265.56588,396.03467 263.61377,398.91196 C 261.94595,401.40972 260.35255,403.95612 258.745,406.49279 C 257.38206,408.67915 255.87057,410.76247 254.37436,412.85689 C 253.30836,414.39376 252.0201,415.74583 250.78797,417.14345 L 244.92242,419.84283 C 246.23673,418.4498 247.61114,417.10861 248.74668,415.55595 C 250.34816,413.43933 251.96518,411.33534 253.41238,409.10682 C 255.13525,406.51813 256.85166,403.92468 258.60132,401.35396 C 260.6524,398.42385 262.72963,395.51304 264.85391,392.63528 C 267.06189,389.52958 269.28177,386.42999 271.32178,383.20964 C 273.21247,380.22033 275.0807,377.21718 276.90255,374.1852 C 278.41842,371.64661 279.95309,369.11713 281.3439,366.5068 C 282.00046,365.08189 282.81922,363.71455 283.20959,362.18009 C 283.2609,361.99146 283.35744,361.56139 283.40752,361.45242 L 290.35913,357.36577 z "
         id="path9280"
         style="opacity:1;fill:black;fill-opacity:0.48584906;fill-rule:evenodd;stroke:black;stroke-width:0;stroke-linecap:butt;stroke-linejoin:round;stroke-miterlimit:4;stroke-dasharray:none;stroke-opacity:1" />
    </g>
  </g>
</svg>
